<svg id="logosandtypes_com" xmlns="http://www.w3.org/2000/svg" viewBox="0 0 150 150"><style>.st1{fill:#00569f}</style><path d="M0 0h150v150H0V0z" fill="none" id="Layer_3"/><g id="City_of_Toronto"><path class="st1" d="M132.9 138.9v-.6c-13-5.8-22.4-7.2-39.6-7.2H23.1v4.8h94.8c6.4.2 11 1.6 15 3zM104.9 7.3l-2.8-2.4c-1.2-.6-2.6.4-2.6.4l-4 1.8v20.8c-3.8 7.6-13.2 11.8-13.8 12.2-1.6.8-2 1.8-2 3.2v77c-2.8.2-7.4.6-7.4.6v-65c0-2.4-1-3.2-3.4-3.6-3.2-.8-7.8-1.4-24.6-8.4V30.5l-3.4-1.8s-1.8-.8-3.2-.4c-1.6.6-3.8 2-4.4 2.6-4 2.8-10.4 8-10.4 17.6v79.8h7V48.7c0-7 4.2-10.4 6.8-12h.6v91.6h7V51.5c5.6 2 9 3.6 15 5.4 2.2.6 4.2 1.2 5.8 1.6v63.6c-7.6 1.4-14 3.6-19.8 6.2h13.8c10-4.6 21.8-7.2 34-7.2-2.2-.2-4.2-.4-6.4-.6v-75c.2-.2.4-.2.8-.4 1.8-1.2 5-3 7.8-6v89.2c1.4 0 4.6-.2 7.4.2v-113l.4-.2c3.4 4.4 6.8 11.2 7 20.2v93.4c2.2.4 4.8.6 7.2 1.2V35.7c-.6-15-8.2-23.6-12.4-28.4z"/></g></svg>